<svg name="bullseye" class="sc-xj3g38-11 fBpULM" viewBox="0 0 80 80" fill="none" xmlns="http://www.w3.org/2000/svg"><path d="M44.03 22.26c.18-.69-.23-1.4-.92-1.54a21.43 21.43 0 1 0 15.65 13.05 1.23 1.23 0 0 0-1.67-.63c-.65.3-.92 1.06-.66 1.73A18.86 18.86 0 1 1 42.45 23.2c.7.14 1.4-.27 1.58-.95Z" fill="#EBE7F5"></path><path fill-rule="evenodd" clip-rule="evenodd" d="m59.5 4.3-4.83 8.06 1.21 8.06 8.65-.72 6.5-6.5h-9.75L59.5 4.3Zm-5.6 16.98-1.42-9.35 5.79-9.64c.79-1.32 2.8-.98 3.1.53L63 11.1h9.04c1.5 0 2.25 1.81 1.19 2.87l-7.77 7.77-9.91.83-14.63 20.27-1.71-1.24 14.67-20.3Z" fill="currentcolor"></path><circle cx="40.02" cy="42.68" fill="currentcolor" r="4.29"></circle></svg>