<?xml version="1.0" encoding="UTF-8"?><svg width="76px" height="82px" viewBox="0 0 76 82" version="1.1" xmlns="http://www.w3.org/2000/svg" xmlns:xlink="http://www.w3.org/1999/xlink"><title>PANEL CHEST OPENED</title><desc>Created with Sketch.</desc><g id="PANEL-CHEST-OPENED" stroke="none" stroke-width="1" fill="none" fill-rule="evenodd"><rect id="Rectangle-7-Copy" fill="#FFBC00" x="29.5608025" y="0.0793699323" width="18.7393275" height="10.9870663" rx="2.78897558"/><rect id="Rectangle-115" fill="#FFBC00" x="5.61610626" y="4.78811265" width="65.5876463" height="6.80151726" rx="1.18345423"/><rect id="Rectangle-6-Copy" stroke="#AA572A" stroke-width="5.57795116" fill="#864624" x="6.32293434" y="11.7626373" width="64.1739901" height="35.2311524" rx="4.18346337"/><g id="Group-23-Copy" transform="translate(51.367448, 32.923647) rotate(-345.000000) translate(-51.367448, -32.923647) translate(37.867448, 16.423647)" fill="#E33535"><path d="M2.05590048,5.88447424 L10.8179735,0.600938877 C12.1681721,-0.213231691 13.858084,-0.213248862 15.2082991,0.600894267 L23.9708693,5.8844866 C25.2468108,6.65384475 26.0268438,8.03504566 26.0268438,9.52499153 L26.0268438,22.5097297 C26.0268438,23.9996755 25.2468108,25.3808764 23.9708693,26.1502346 L15.2082991,31.4338269 C13.858084,32.24797 12.1681721,32.2479529 10.8179735,31.4337823 L2.05590048,26.1502469 C0.780000969,25.3808788 -1.14084845e-15,23.9997017 0,22.5097866 L0,9.52493456 C-1.73229561e-15,8.03501948 0.780000969,6.65384242 2.05590048,5.88447424 Z" id="Rectangle-2-Copy-2"/></g><g id="Group-23-Copy-11" transform="translate(28.048093, 24.528016) scale(-1, 1) rotate(-348.000000) translate(-28.048093, -24.528016) translate(14.548093, 8.028016)"><path d="M2.05590048,5.88447424 L10.8179735,0.600938877 C12.1681721,-0.213231691 13.858084,-0.213248862 15.2082991,0.600894267 L23.9708693,5.8844866 C25.2468108,6.65384475 26.0268438,8.03504566 26.0268438,9.52499153 L26.0268438,22.5097297 C26.0268438,23.9996755 25.2468108,25.3808764 23.9708693,26.1502346 L15.2082991,31.4338269 C13.858084,32.24797 12.1681721,32.2479529 10.8179735,31.4337823 L2.05590048,26.1502469 C0.780000969,25.3808788 -1.59389487e-15,23.9997017 0,22.5097866 L0,9.52493456 C-1.95881881e-15,8.03501948 0.780000969,6.65384242 2.05590048,5.88447424 Z" id="Rectangle-2-Copy-2" fill="#FF4B4B"/><path d="M22.9675492,4.32329693 L22.9675492,12.2128842 C22.9675492,12.9614742 22.3606971,13.5683264 21.6121071,13.5683264 C21.3941005,13.5683264 21.1793104,13.5157416 20.9859592,13.4150332 L14.0323007,9.79317045 C13.3683721,9.44735851 13.1104876,8.62880212 13.4562996,7.96487357 C13.5697263,7.74710428 13.7401766,7.56423566 13.949445,7.43579968 L20.9031035,3.16807514 C21.5411149,2.77650331 22.375757,2.97628203 22.7673289,3.61429341 C22.898249,3.82760941 22.9675492,4.0730095 22.9675492,4.32329693 Z" id="Path-52" fill="#FFA6A6" transform="translate(18.063668, 8.262307) scale(-1, 1) translate(-18.063668, -8.262307)"/></g><g id="Group-23-Copy-12" transform="translate(36.977056, 42.484632) scale(-1, 1) rotate(34.000000) translate(-36.977056, -42.484632) translate(23.477056, 25.984632)" fill="#E33535"><path d="M2.05590048,5.88447424 L10.8179735,0.600938877 C12.1681721,-0.213231691 13.858084,-0.213248862 15.2082991,0.600894267 L23.9708693,5.8844866 C25.2468108,6.65384475 26.0268438,8.03504566 26.0268438,9.52499153 L26.0268438,22.5097297 C26.0268438,23.9996755 25.2468108,25.3808764 23.9708693,26.1502346 L15.2082991,31.4338269 C13.858084,32.24797 12.1681721,32.2479529 10.8179735,31.4337823 L2.05590048,26.1502469 C0.780000969,25.3808788 7.92437612e-13,23.9997017 7.95807864e-13,22.5097866 L7.95807864e-13,9.52493456 C7.95398879e-13,8.03501948 0.780000969,6.65384242 2.05590048,5.88447424 Z" id="Rectangle-2-Copy-2"/></g><g id="Group-23-Copy-13" transform="translate(55.458910, 39.345471) rotate(34.000000) translate(-55.458910, -39.345471) translate(41.958910, 22.845471)"><path d="M2.05590048,5.88447424 L10.8179735,0.600938877 C12.1681721,-0.213231691 13.858084,-0.213248862 15.2082991,0.600894267 L23.9708693,5.8844866 C25.2468108,6.65384475 26.0268438,8.03504566 26.0268438,9.52499153 L26.0268438,22.5097297 C26.0268438,23.9996755 25.2468108,25.3808764 23.9708693,26.1502346 L15.2082991,31.4338269 C13.858084,32.24797 12.1681721,32.2479529 10.8179735,31.4337823 L2.05590048,26.1502469 C0.780000969,25.3808788 1.07064039e-15,23.9997017 0,22.5097866 L0,9.52493456 C2.48207329e-15,8.03501948 0.780000969,6.65384242 2.05590048,5.88447424 Z" id="Rectangle-2-Copy-2" fill="#FF4B4B"/><path d="M13.0947558,4.77206487 L13.0947558,12.6616522 C13.0947558,13.4102422 12.4879037,14.0170943 11.7393136,14.0170943 C11.5213071,14.0170943 11.306517,13.9645095 11.1131657,13.8638011 L4.15950724,10.2419384 C3.49557869,9.89612645 3.23769422,9.07757006 3.58350616,8.41364151 C3.69693285,8.19587222 3.86738319,8.0130036 4.07665162,7.88456762 L11.0303101,3.61684308 C11.6683215,3.22527125 12.5029636,3.42504998 12.8945354,4.06306135 C13.0254556,4.27637735 13.0947558,4.52177744 13.0947558,4.77206487 Z" id="Path-52" fill="#FFA6A6"/></g><g id="Group-23-Copy-14" transform="translate(20.415946, 39.207055) scale(-1, 1) rotate(34.000000) translate(-20.415946, -39.207055) translate(7.415946, 22.707055)" fill="#FF4B4B"><path d="M2.19307387,6.19301503 L10.8312128,0.934127389 C12.1890137,0.10749996 13.89456,0.107482553 15.2523778,0.934082266 L23.8910075,6.19302699 C25.1581882,6.96444951 25.9315623,8.3406669 25.9315623,9.82418964 L25.9315623,22.8326786 C25.9315623,24.3162013 25.1581882,25.6924187 23.8910075,26.4638412 L15.2523778,31.7227859 C13.89456,32.5493857 12.1890137,32.5493683 10.8312128,31.7227408 L2.19307387,26.4638532 C0.925935287,25.6924209 0.152593203,24.3162275 0.152593203,22.8327357 L0.152593203,9.82413255 C0.152593203,8.34064072 0.925935287,6.96444734 2.19307387,6.19301503 Z" id="Rectangle-2-Copy-2"/></g><polygon id="Rectangle-4-Copy" fill="#AA572A" points="3.53395876 40.8884735 72.2448263 40.8884735 72.2448263 81.697577 3.53395876 81.697577"/><polygon id="Line-Copy" fill="#904821" fill-rule="nonzero" points="9.03007786 68.9658367 62.0638753 68.9658367 62.0638753 66.1768611 9.03007786 66.1768611"/><polygon id="Line-Copy-2" fill="#904821" fill-rule="nonzero" points="9.03007786 54.8396085 62.0638753 54.8396085 62.0638753 52.0506329 9.03007786 52.0506329"/><path d="M3.19971308,81.697577 C1.6594044,81.697577 0.410737506,80.4489101 0.410737506,78.9086015 L0.410737506,40.5382873 C0.410737506,38.9979786 1.6594044,37.7493117 3.19971308,37.7493117 L12.7173313,37.7493117 C14.25764,37.7493117 15.5063069,38.9979786 15.5063069,40.5382873 L15.5057375,75.9423117 L60.2717375,75.9423117 L60.2724782,40.5382873 C60.2724782,38.9979786 61.5211451,37.7493117 63.0614537,37.7493117 L72.579072,37.7493117 C74.1193806,37.7493117 75.3680475,38.9979786 75.3680475,40.5382873 L75.3680475,78.9086015 C75.3680475,80.4489101 74.1193806,81.697577 72.579072,81.697577 L63.0614537,81.697577 L3.19971308,81.697577 Z" id="Combined-Shape" fill="#FFBC00"/><g id="Rectangle-8-Copy" transform="translate(-0.589262, 37.749312)" fill="#FFD300"><path d="M16.0955694,2.78897558 L16.0952915,17.1207308 L0.999291472,32.2947308 L0.999291472,14.0147308 L14.6176277,0.326730827 C15.4970607,0.795966982 16.0955694,1.72257669 16.0955694,2.78897558 Z" id="Path"/></g><path d="M15.5053044,65.5943117 L15.5057375,75.9423117 L27.6573044,75.9413117 L21.9373044,81.6973117 L3.19971308,81.697577 C2.19423381,81.697577 1.31302858,81.1654966 0.822304383,80.3675426 L15.5053044,65.5943117 Z" id="Path" fill="#FFD300"/><g id="Rectangle-8-Copy-2" transform="translate(60.272478, 37.749312)"/><path d="M75.3680475,40.5382873 L75.3677375,61.2888716 L55.0247375,81.6968716 L31.7647375,81.6968716 L37.5007375,75.9418716 L60.2717375,75.9423117 L60.2717375,53.0978716 L74.6515122,38.6718716 C75.0969267,39.1661349 75.3680475,39.8205492 75.3680475,40.5382873 Z" id="Combined-Shape" fill="#FFD300"/><rect id="Rectangle-92-Copy" fill="#FFBC00" x="27.478655" y="37.7493117" width="20.821475" height="25.1132945" rx="2.78897558"/><g id="Group-2-Copy" transform="translate(33.204561, 41.934861)" fill="#DB8500"><ellipse id="Oval-20" cx="4.94510032" cy="5.05753847" rx="4.94510032" ry="5.05753847"/><path d="M7.43308312,8.04888391 L9.01377086,12.4919328 C9.38543667,13.5366232 8.83984241,14.6848068 7.79515197,15.0564726 C7.57911023,15.133333 7.35149817,15.1726154 7.12219148,15.1726154 L2.67520533,15.1726154 C1.56637099,15.1726154 0.667483157,14.2737276 0.667483157,13.1648932 C0.667483157,12.9355866 0.706765558,12.7079745 0.783625961,12.4919328 L2.3643137,8.04888391 C2.86228073,6.64918189 4.40064545,5.91818124 5.80034747,6.41614827 C6.56237885,6.68725347 7.16197791,7.28685253 7.43308312,8.04888391 Z" id="Triangle-2"/></g><path d="M19.4210002,27.0597674 L19.8673574,36.402709 C19.9013061,37.1133062 19.3527741,37.7168797 18.642177,37.7508284 C18.0637885,37.7784608 17.5380469,37.416755 17.3570987,36.8667054 L14.7233162,28.8604852 C14.5297932,28.2722104 14.7595938,27.627581 15.2816075,27.2943841 L17.3378316,25.9819139 C17.9688366,25.5791489 18.8068729,25.7641739 19.2096379,26.3951789 C19.3368512,26.5944817 19.4097171,26.8235947 19.4210002,27.0597674 Z" id="Path-52-Copy-2" fill="#FFA6A6" transform="translate(17.357099, 35.298113) scale(-1, 1) rotate(33.000000) translate(-17.357099, -35.298113)"/><ellipse id="Oval-23-Copy" fill="#F8A201" cx="8.21879064" cy="45.5972162" rx="2.60268438" ry="2.61596818"/><ellipse id="Oval-23-Copy-2" fill="#F8A201" cx="8.21879064" cy="73.3264789" rx="2.60268438" ry="2.61596818"/><ellipse id="Oval-23-Copy-3" fill="#F8A201" cx="68.6010682" cy="73.3264789" rx="2.60268438" ry="2.61596818"/><ellipse id="Oval-23-Copy-4" fill="#F8A201" cx="68.6010682" cy="45.5972162" rx="2.60268438" ry="2.61596818"/></g></svg>